<svg width="161" height="24" viewBox="0 0 161 24" fill="none" xmlns="http://www.w3.org/2000/svg">
<path d="M0.1945 21.911V19.8485C0.9205 20.3545 1.6575 20.756 2.4055 21.053C3.1645 21.35 3.918 21.4985 4.666 21.4985C5.931 21.4985 6.822 21.1245 7.339 20.3765C7.856 19.6285 8.1145 18.611 8.1145 17.324V2.6225H10.012V17.324C10.012 18.721 9.803 19.865 9.385 20.756C8.967 21.647 8.362 22.307 7.57 22.736C6.789 23.154 5.8485 23.363 4.7485 23.363C3.9015 23.363 3.104 23.2255 2.356 22.9505C1.619 22.6755 0.8985 22.329 0.1945 21.911ZM25.746 23L25.4985 19.7495V12.8195C25.4985 11.2465 25.1575 10.13 24.4755 9.47C23.7935 8.81 22.82 8.48 21.555 8.48C20.851 8.48 20.1965 8.5845 19.5915 8.7935C18.9865 8.9915 18.5025 9.316 18.1395 9.767C17.7765 10.207 17.595 10.79 17.595 11.516H15.417C15.417 10.405 15.692 9.5195 16.242 8.8595C16.792 8.1885 17.529 7.71 18.453 7.424C19.388 7.127 20.422 6.9785 21.555 6.9785C22.677 6.9785 23.678 7.1765 24.558 7.5725C25.438 7.9575 26.131 8.5845 26.637 9.4535C27.154 10.3115 27.4125 11.4445 27.4125 12.8525V23H25.746ZM20.301 23.363C19.047 23.363 18.013 23.1375 17.199 22.6865C16.385 22.2245 15.78 21.636 15.384 20.921C14.988 20.206 14.79 19.469 14.79 18.71C14.79 17.61 15.054 16.73 15.582 16.07C16.121 15.41 16.836 14.9315 17.727 14.6345C18.629 14.3375 19.6135 14.189 20.6805 14.189C21.4835 14.189 22.314 14.2825 23.172 14.4695C24.041 14.6455 24.8715 14.893 25.6635 15.212V16.499C24.9815 16.202 24.195 15.9655 23.304 15.7895C22.413 15.6135 21.6045 15.5255 20.8785 15.5255C19.7565 15.5255 18.7995 15.7675 18.0075 16.2515C17.2155 16.7355 16.8195 17.555 16.8195 18.71C16.8195 19.579 17.111 20.316 17.694 20.921C18.288 21.526 19.2395 21.8285 20.5485 21.8285C21.4395 21.8285 22.259 21.614 23.007 21.185C23.755 20.756 24.3545 20.2225 24.8055 19.5845C25.2675 18.9465 25.4985 18.303 25.4985 17.654H25.977C25.977 18.655 25.7405 19.59 25.2675 20.459C24.8055 21.328 24.1455 22.032 23.2875 22.571C22.4405 23.099 21.445 23.363 20.301 23.363ZM43.3417 23L43.0942 19.7495V12.8195C43.0942 11.2465 42.7532 10.13 42.0712 9.47C41.3892 8.81 40.4157 8.48 39.1507 8.48C38.4467 8.48 37.7922 8.5845 37.1872 8.7935C36.5822 8.9915 36.0982 9.316 35.7352 9.767C35.3722 10.207 35.1907 10.79 35.1907 11.516H33.0127C33.0127 10.405 33.2877 9.5195 33.8377 8.8595C34.3877 8.1885 35.1247 7.71 36.0487 7.424C36.9837 7.127 38.0177 6.9785 39.1507 6.9785C40.2727 6.9785 41.2737 7.1765 42.1537 7.5725C43.0337 7.9575 43.7267 8.5845 44.2327 9.4535C44.7497 10.3115 45.0082 11.4445 45.0082 12.8525V23H43.3417ZM37.8967 23.363C36.6427 23.363 35.6087 23.1375 34.7947 22.6865C33.9807 22.2245 33.3757 21.636 32.9797 20.921C32.5837 20.206 32.3857 19.469 32.3857 18.71C32.3857 17.61 32.6497 16.73 33.1777 16.07C33.7167 15.41 34.4317 14.9315 35.3227 14.6345C36.2247 14.3375 37.2092 14.189 38.2762 14.189C39.0792 14.189 39.9097 14.2825 40.7677 14.4695C41.6367 14.6455 42.4672 14.893 43.2592 15.212V16.499C42.5772 16.202 41.7907 15.9655 40.8997 15.7895C40.0087 15.6135 39.2002 15.5255 38.4742 15.5255C37.3522 15.5255 36.3952 15.7675 35.6032 16.2515C34.8112 16.7355 34.4152 17.555 34.4152 18.71C34.4152 19.579 34.7067 20.316 35.2897 20.921C35.8837 21.526 36.8352 21.8285 38.1442 21.8285C39.0352 21.8285 39.8547 21.614 40.6027 21.185C41.3507 20.756 41.9502 20.2225 42.4012 19.5845C42.8632 18.9465 43.0942 18.303 43.0942 17.654H43.5727C43.5727 18.655 43.3362 19.59 42.8632 20.459C42.4012 21.328 41.7412 22.032 40.8832 22.571C40.0362 23.099 39.0407 23.363 37.8967 23.363ZM62.7194 23V13.7765C62.7194 12.1155 62.3179 10.845 61.5149 9.965C60.7229 9.085 59.6284 8.645 58.2314 8.645C57.2084 8.645 56.3229 8.9255 55.5749 9.4865C54.8379 10.0475 54.2714 10.834 53.8754 11.846C53.4904 12.858 53.2979 14.0405 53.2979 15.3935H52.4564C52.4564 13.6775 52.6874 12.1925 53.1494 10.9385C53.6224 9.6735 54.3154 8.7 55.2284 8.018C56.1524 7.325 57.2964 6.9785 58.6604 6.9785C59.8704 6.9785 60.9154 7.248 61.7954 7.787C62.6864 8.326 63.3739 9.107 63.8579 10.13C64.3419 11.142 64.5839 12.3575 64.5839 13.7765V23H62.7194ZM51.3839 23V7.3415H53.0009L53.2979 11.2025V23H51.3839ZM81.7357 7.325H83.6497V23H81.7357V7.325ZM70.4497 7.325H72.3637V17.159C72.3637 18.611 72.7157 19.722 73.4197 20.492C74.1347 21.251 75.1632 21.6305 76.5052 21.6305C77.6052 21.6305 78.5457 21.3335 79.3267 20.7395C80.1077 20.1455 80.7017 19.348 81.1087 18.347C81.5267 17.346 81.7357 16.2405 81.7357 15.0305H82.6432C82.6432 16.7025 82.3847 18.16 81.8677 19.403C81.3507 20.646 80.6192 21.6085 79.6732 22.2905C78.7272 22.9615 77.6052 23.297 76.3072 23.297C75.0972 23.297 74.0522 23.0715 73.1722 22.6205C72.3032 22.1695 71.6322 21.4985 71.1592 20.6075C70.6862 19.7055 70.4497 18.589 70.4497 17.258V7.325ZM97.9957 23.462C96.1147 23.462 94.4757 23.0165 93.0787 22.1255C91.6927 21.2235 90.6147 19.9365 89.8447 18.2645C89.0747 16.5925 88.6897 14.585 88.6897 12.242C88.6897 9.822 89.0857 7.7925 89.8777 6.1535C90.6807 4.5035 91.7807 3.2605 93.1777 2.4245C94.5857 1.5775 96.1917 1.154 97.9957 1.154C100.493 1.154 102.44 1.759 103.837 2.969C105.245 4.179 106.147 5.752 106.543 7.688L102.385 8.447C102.044 7.325 101.499 6.4175 100.751 5.7245C100.003 5.0315 99.0847 4.685 97.9957 4.685C97.0387 4.685 96.1752 4.9655 95.4052 5.5265C94.6352 6.0765 94.0192 6.9125 93.5572 8.0345C93.1062 9.1565 92.8807 10.559 92.8807 12.242C92.8807 13.826 93.0787 15.19 93.4747 16.334C93.8817 17.478 94.4647 18.358 95.2237 18.974C95.9827 19.59 96.9067 19.898 97.9957 19.898C99.3927 19.898 100.471 19.5295 101.23 18.7925C102 18.0445 102.385 17.093 102.385 15.938H106.543C106.543 17.533 106.196 18.8915 105.503 20.0135C104.821 21.1245 103.842 21.977 102.566 22.571C101.29 23.165 99.7667 23.462 97.9957 23.462ZM122.112 23V13.628C122.112 12.44 121.826 11.5435 121.254 10.9385C120.682 10.3335 119.934 10.031 119.01 10.031C118.229 10.031 117.536 10.2455 116.931 10.6745C116.337 11.1035 115.869 11.7525 115.528 12.6215C115.187 13.4795 115.017 14.552 115.017 15.839H113.73C113.73 13.76 113.988 12.033 114.505 10.658C115.022 9.272 115.754 8.238 116.7 7.556C117.646 6.874 118.757 6.533 120.033 6.533C121.353 6.533 122.453 6.83 123.333 7.424C124.224 8.007 124.889 8.832 125.329 9.899C125.78 10.966 126.006 12.209 126.006 13.628V23H122.112ZM111.123 23V0.361998H115.017V23H111.123ZM141.88 23L141.385 19.106V12.671C141.385 11.549 141.154 10.7185 140.692 10.1795C140.241 9.6405 139.471 9.371 138.382 9.371C137.755 9.371 137.211 9.4645 136.749 9.6515C136.287 9.8385 135.929 10.108 135.676 10.46C135.434 10.801 135.313 11.219 135.313 11.714H131.056C131.056 10.504 131.348 9.5195 131.931 8.7605C132.514 7.9905 133.35 7.4295 134.439 7.0775C135.539 6.7145 136.853 6.533 138.382 6.533C139.768 6.533 140.978 6.7585 142.012 7.2095C143.046 7.6495 143.849 8.3315 144.421 9.2555C144.993 10.1795 145.279 11.362 145.279 12.803V23H141.88ZM136.633 23.462C135.258 23.462 134.109 23.2255 133.185 22.7525C132.272 22.2685 131.584 21.636 131.122 20.855C130.66 20.074 130.429 19.227 130.429 18.314C130.429 17.302 130.693 16.455 131.221 15.773C131.76 15.08 132.519 14.563 133.498 14.222C134.477 13.87 135.632 13.694 136.963 13.694C137.832 13.694 138.652 13.76 139.422 13.892C140.203 14.024 140.978 14.2 141.748 14.42V16.697C141.143 16.499 140.483 16.345 139.768 16.235C139.053 16.125 138.382 16.07 137.755 16.07C136.831 16.07 136.072 16.2405 135.478 16.5815C134.884 16.9225 134.587 17.5 134.587 18.314C134.587 18.908 134.829 19.4195 135.313 19.8485C135.797 20.2775 136.567 20.492 137.623 20.492C138.426 20.492 139.108 20.316 139.669 19.964C140.23 19.612 140.654 19.172 140.94 18.644C141.237 18.116 141.385 17.588 141.385 17.06H142.309C142.309 18.215 142.095 19.282 141.666 20.261C141.237 21.229 140.599 22.0045 139.752 22.5875C138.916 23.1705 137.876 23.462 136.633 23.462ZM156.399 23.462C155.453 23.462 154.584 23.286 153.792 22.934C153.011 22.582 152.384 22.043 151.911 21.317C151.449 20.591 151.218 19.667 151.218 18.545V2.738H155.112V18.413C155.112 19.733 155.739 20.393 156.993 20.393C157.378 20.393 157.763 20.349 158.148 20.261C158.533 20.173 158.973 20.041 159.468 19.865L160.029 22.604C159.413 22.846 158.813 23.0495 158.23 23.2145C157.647 23.3795 157.037 23.462 156.399 23.462ZM148.974 9.569V6.995H159.468V9.569H148.974Z" fill="#1E71FF"/>
</svg>
