<svg width="154" height="34" viewBox="0 0 154 34" fill="none" xmlns="http://www.w3.org/2000/svg">
<path d="M130.444 23.4731C130.099 24.3786 131.115 25.1956 131.926 24.6654L136.039 21.9757C136.401 21.7386 136.875 21.7619 137.213 22.0335L141.042 25.1139C141.796 25.7211 142.887 25.0078 142.634 24.0728L141.347 19.3301C141.233 18.912 141.402 18.4684 141.764 18.2313L145.877 15.5416C146.688 15.0114 146.347 13.7535 145.379 13.7059L140.471 13.4644C140.038 13.4431 139.668 13.1456 139.555 12.7275L138.268 7.98476C138.014 7.04985 136.712 6.9858 136.368 7.89128L134.621 12.4848C134.467 12.8897 134.07 13.1495 133.637 13.1282L128.729 12.8867C127.762 12.8391 127.298 14.0574 128.053 14.6646L131.882 17.7451C132.22 18.0166 132.344 18.4746 132.19 18.8796L130.444 23.4731Z" fill="#FD9400"/>
<path d="M70.4436 23.4731C70.0993 24.3786 71.1149 25.1956 71.9256 24.6654L76.0385 21.9757C76.4011 21.7386 76.8751 21.7619 77.2127 22.0335L81.0417 25.1139C81.7965 25.7211 82.8873 25.0078 82.6336 24.0728L81.3465 19.3301C81.233 18.912 81.4017 18.4684 81.7643 18.2313L85.8772 15.5416C86.6879 15.0114 86.3465 13.7535 85.379 13.7059L80.4706 13.4644C80.0379 13.4431 79.6682 13.1456 79.5547 12.7275L78.2676 7.98476C78.0139 7.04985 76.7121 6.9858 76.3678 7.89128L74.6214 12.4848C74.4674 12.8897 74.0702 13.1495 73.6375 13.1282L68.7291 12.8867C67.7616 12.8391 67.2984 14.0574 68.0532 14.6646L71.8822 17.7451C72.2197 18.0166 72.344 18.4746 72.19 18.8796L70.4436 23.4731Z" fill="#FD9400"/>
<path d="M100.444 23.4731C100.099 24.3786 101.115 25.1956 101.926 24.6654L106.039 21.9757C106.401 21.7386 106.875 21.7619 107.213 22.0335L111.042 25.1139C111.796 25.7211 112.887 25.0078 112.634 24.0728L111.347 19.3301C111.233 18.912 111.402 18.4684 111.764 18.2313L115.877 15.5416C116.688 15.0114 116.347 13.7535 115.379 13.7059L110.471 13.4644C110.038 13.4431 109.668 13.1456 109.555 12.7275L108.268 7.98476C108.014 7.04985 106.712 6.9858 106.368 7.89128L104.621 12.4848C104.467 12.8897 104.07 13.1495 103.637 13.1282L98.7291 12.8867C97.7616 12.8391 97.2984 14.0574 98.0532 14.6646L101.882 17.7451C102.22 18.0166 102.344 18.4746 102.19 18.8796L100.444 23.4731Z" fill="#FD9400"/>
<path d="M10.4436 23.3449C10.0993 24.2504 11.1149 25.0674 11.9256 24.5372L16.0385 21.8475C16.4011 21.6104 16.8751 21.6337 17.2127 21.9053L21.0417 24.9857C21.7965 25.593 22.8873 24.8796 22.6336 23.9447L21.3465 19.2019C21.233 18.7838 21.4017 18.3402 21.7643 18.1031L25.8772 15.4134C26.6879 14.8832 26.3465 13.6253 25.379 13.5777L20.4706 13.3362C20.0379 13.3149 19.6682 13.0174 19.5547 12.5993L18.2676 7.85658C18.0139 6.92168 16.7121 6.85762 16.3678 7.76311L14.6214 12.3566C14.4674 12.7615 14.0702 13.0213 13.6375 13L8.72914 12.7585C7.76159 12.7109 7.29838 13.9292 8.05317 14.5365L11.8822 17.6169C12.2197 17.8884 12.344 18.3465 12.19 18.7514L10.4436 23.3449Z" fill="#FD9400"/>
<path d="M40.4436 23.3449C40.0993 24.2504 41.1149 25.0674 41.9256 24.5372L46.0385 21.8475C46.4011 21.6104 46.8751 21.6337 47.2127 21.9053L51.0417 24.9857C51.7965 25.593 52.8873 24.8796 52.6336 23.9447L51.3465 19.2019C51.233 18.7838 51.4017 18.3402 51.7643 18.1031L55.8772 15.4134C56.6879 14.8832 56.3465 13.6253 55.379 13.5777L50.4706 13.3362C50.0379 13.3149 49.6682 13.0174 49.5547 12.5993L48.2676 7.85658C48.0139 6.92168 46.7121 6.85762 46.3678 7.76311L44.6214 12.3566C44.4674 12.7615 44.0702 13.0213 43.6375 13L38.7291 12.7585C37.7616 12.7109 37.2984 13.9292 38.0532 14.5365L41.8822 17.6169C42.2197 17.8884 42.344 18.3465 42.19 18.7514L40.4436 23.3449Z" fill="#FD9400"/>
</svg>
